# xmcd
#
# Track frame offsets:
#	150
#	15333
#	30038
#	45693
#	60296
#	74155
#	88476
#	102398
#	115776
#	131041
#	145136
#	160121
#	172035
#	184959
#	199802
#	214971
#	229436
#	243701
#	255100
#	270640
#	286438
#	304045
#	319337
#
# Disc length: 4440 seconds
#
# Revision: 0
# Processed by: cddbd v1.5.2PL0 Copyright (c) Steve Scherf et al.
# Submitted via: EasyCDDAExtractor 16.0.8.2
#
DISCID=56115617
DTITLE=Κόκοτας Σταμάτης - Αξέχαστες επιτυχίες-Κόκοτας Σταμάτης
DYEAR=1982
DGENRE=Ελαφρολαϊκή
TTITLE0=Στου προφήτη Ηλία [Δ. Μούτση-Γ. Παπαστεφάνου]
TTITLE1=Δεν το μπορείς [Γ. Σπανού-Λ. Παπαδόπουλου]
TTITLE2=Γιέ μου, γιέ μου [Απ. Καλδάρα-Λ. Παπαδόπουλου]
TTITLE3=Βρέχει ο Θεός [Δ. Μούτση-Ν. Γκάτσου]
TTITLE4=Τελευταία αγάπη [Γ. Ζαμπέτα-Στ. Κόκοτα]
TTITLE5=Ο τρελλός [Γ. Σπανού-Λ. Παπαδόπουλου]
TTITLE6=Πειραιώτισσα [Δ. Μούτση-Ν. Γκάτσου]
TTITLE7=Ρωμιός αγάπησε Ρωμιά [Γ. Ζαμπέτα-Ξ. Φιλέρη]
TTITLE8=Πήρες τον μεγάλο δρόμο [Δ. Μούτση-Ν. Γκάτσου]
TTITLE9=Το παιδί απ' το λιμάνι [Β. Τσιτσάνη]
TTITLE10=Μη μού χτυπάς μεσάνυχτα την πόρτα [Δ.Μούτση-Ν.Γκάτσου]
TTITLE11=Έξω φυσάει και βρέχει [Στ. Ξαρχάκου-Λ. Παπαδόπουλου]
TTITLE12=Πέσε στην αγκαλιά μου [Απ. Καλδάρα-Γ. Παπανικολόπουλου]
TTITLE13=Όνειρο απατηλό [Απ. Καλδάρα-Ευτ. Παπαγιαννοπούλου]
TTITLE14=Στις δεκάξι Μάη μήνα [Ε. Πιτσιλαδή-Γ. Κιούρκα]
TTITLE15=Μιά παρένθεση και μόνο [Γ. Χατζηνάσιου-Ν. Βρεττού]
TTITLE16=Άπονη καρδιά [Δ. Μούτση-Ν. Γκάτσου]
TTITLE17=Μη καλέ μου [Γ. Σπανού-Λ. Παπαδόπουλου]
TTITLE18=Καρδιά παραπονιάρα [Απ. Χατζηχρήστου-Ιωάννη Λελάκη]
TTITLE19=Πες πως μ' αντάμωσες [Γ. Σπανού-Λ. Παπαδόπουλου]
TTITLE20=Στου Όθωνα τα χρόνια [Στ. Ξαρχάκου-Ν. Γκάτσου]
TTITLE21=Με τι καρδιά τον κόσμο ν' αρνηθώ [Στ.Ξαρχάκου-Ν.Γκάτσου]
TTITLE22=Γιατί θαρρείς με κέφι [Στ. Ξαρχάκου-Λ. Παπαδόπουλου]
EXTD=
EXTT0=
EXTT1=
EXTT2=
EXTT3=
EXTT4=
EXTT5=
EXTT6=
EXTT7=
EXTT8=
EXTT9=
EXTT10=
EXTT11=
EXTT12=
EXTT13=
EXTT14=
EXTT15=
EXTT16=
EXTT17=
EXTT18=
EXTT19=
EXTT20=
EXTT21=
EXTT22=
PLAYORDER=
